solid Feet
  facet normal -1 0 0
    outer loop
      vertex 0 0 0
      vertex 0 0 15
      vertex 0 20 15
    endloop
  endfacet
  facet normal -1 0 0
    outer loop
      vertex 0 0 0
      vertex 0 20 15
      vertex 0 20 0
    endloop
  endfacet
  facet normal 1 0 0
    outer loop
      vertex 20 0 0
      vertex 20 20 0
      vertex 20 20 15
    endloop
  endfacet
  facet normal 1 0 0
    outer loop
      vertex 20 0 0
      vertex 20 20 15
      vertex 20 0 15
    endloop
  endfacet
  facet normal 0 -1 0
    outer loop
      vertex 0 0 0
      vertex 20 0 0
      vertex 20 0 15
    endloop
  endfacet
  facet normal 0 -1 0
    outer loop
      vertex 0 0 0
      vertex 20 0 15
      vertex 0 0 15
    endloop
  endfacet
  facet normal 0 1 0
    outer loop
      vertex 0 20 0
      vertex 0 20 15
      vertex 20 20 15
    endloop
  endfacet
  facet normal 0 1 0
    outer loop
      vertex 0 20 0
      vertex 20 20 15
      vertex 20 20 0
    endloop
  endfacet
  facet normal 0 0 -1
    outer loop
      vertex 0 0 0
      vertex 0 20 0
      vertex 20 20 0
    endloop
  endfacet
  facet normal 0 0 -1
    outer loop
      vertex 0 0 0
      vertex 20 20 0
      vertex 20 0 0
    endloop
  endfacet
  facet normal 0 0 1
    outer loop
      vertex 0 0 15
      vertex 20 0 15
      vertex 20 20 15
    endloop
  endfacet
  facet normal 0 0 1
    outer loop
      vertex 0 0 15
      vertex 20 20 15
      vertex 0 20 15
    endloop
  endfacet
  facet normal -1 0 0
    outer loop
      vertex 0 20 0
      vertex 0 20 8
      vertex 0 40 8
    endloop
  endfacet
  facet normal -1 0 0
    outer loop
      vertex 0 20 0
      vertex 0 40 8
      vertex 0 40 0
    endloop
  endfacet
  facet normal 1 0 0
    outer loop
      vertex 20 20 0
      vertex 20 40 0
      vertex 20 40 8
    endloop
  endfacet
  facet normal 1 0 0
    outer loop
      vertex 20 20 0
      vertex 20 40 8
      vertex 20 20 8
    endloop
  endfacet
  facet normal 0 -1 0
    outer loop
      vertex 0 20 0
      vertex 20 20 0
      vertex 20 20 8
    endloop
  endfacet
  facet normal 0 -1 0
    outer loop
      vertex 0 20 0
      vertex 20 20 8
      vertex 0 20 8
    endloop
  endfacet
  facet normal 0 1 0
    outer loop
      vertex 0 40 0
      vertex 0 40 8
      vertex 20 40 8
    endloop
  endfacet
  facet normal 0 1 0
    outer loop
      vertex 0 40 0
      vertex 20 40 8
      vertex 20 40 0
    endloop
  endfacet
  facet normal 0 0 -1
    outer loop
      vertex 0 20 0
      vertex 0 40 0
      vertex 20 40 0
    endloop
  endfacet
  facet normal 0 0 -1
    outer loop
      vertex 0 20 0
      vertex 20 40 0
      vertex 20 20 0
    endloop
  endfacet
  facet normal 0 0 1
    outer loop
      vertex 0 20 8
      vertex 20 20 8
      vertex 20 40 8
    endloop
  endfacet
  facet normal 0 0 1
    outer loop
      vertex 0 20 8
      vertex 20 40 8
      vertex 0 40 8
    endloop
  endfacet
endsolid
